<svg width="280" height="48" viewBox="0 0 280 48" fill="none" xmlns="http://www.w3.org/2000/svg">
<path d="M16.656 31.4481C12.8641 29.9122 10.08 26.4561 9.648 22.2801C9.55206 21.5601 8.928 21.0321 8.208 21.0321H6.288C5.42392 21.0321 4.75208 21.8001 4.848 22.6162C5.47208 28.9522 9.84 34.2322 15.696 36.2002C16.608 36.4882 17.568 35.8161 17.568 34.8082V32.7441C17.568 32.1682 17.1841 31.6402 16.656 31.4482V31.4481Z" fill="#2DD4BF"/>
<path d="M30.768 11.4321H28.7521C25.3921 11.4321 22.6561 8.888 22.3681 5.62408C22.3681 5.24002 22.0801 5 21.7442 5H19.8242C19.4401 5 19.1521 5.33594 19.2001 5.67204C19.3921 8.40796 20.736 10.856 22.8001 12.488C23.136 12.776 23.136 13.208 22.8001 13.496C20.736 15.128 19.3921 17.624 19.2001 20.408C19.2001 20.7439 18.9121 20.9839 18.576 20.9839H13.488C13.104 20.9839 12.816 21.3199 12.816 21.7039C13.1519 25.3519 15.936 28.3279 19.536 28.9039C20.256 28.9999 20.7839 29.6239 20.7839 30.3439V42.7759C20.7839 43.16 21.1199 43.448 21.456 43.4C24.8639 43.112 27.648 40.712 28.512 37.496C28.5599 37.256 28.8479 37.016 29.1361 37.016H30.384C39.168 37.016 45.936 28.136 42.096 18.824C40.176 14.312 35.664 11.432 30.768 11.432V11.4321ZM30.2401 21.0321H23.6161C22.704 21.0321 22.4161 20.6961 22.464 20.3121C22.7521 17.096 25.4881 14.6001 28.752 14.6001H30.3361C32.112 14.6001 33.6002 16.088 33.552 17.8642C33.5041 19.6401 31.9679 21.0321 30.24 21.0321L30.2401 21.0321Z" fill="#2DD4BF"/>
<mask id="path-3-inside-1_2_8" fill="white">
<path d="M61.0156 34H57.3906C57.3073 34 57.2656 33.9479 57.2656 33.8438L57.3281 11.8594C57.3281 11.776 57.3698 11.7344 57.4531 11.7344H63.9219C65.0781 11.7344 66.1406 12.0156 67.1094 12.5781C68.0781 13.1406 68.849 13.8958 69.4219 14.8438C70.0052 15.7917 70.2969 16.8646 70.2969 18.0625C70.2969 18.8438 70.1771 19.5521 69.9375 20.1875C69.6979 20.8229 69.4167 21.3594 69.0938 21.7969C68.7812 22.2344 68.4948 22.5573 68.2344 22.7656C69.3906 24.0469 69.9688 25.5521 69.9688 27.2812L70 33.8438C70 33.9479 69.9479 34 69.8438 34H66.2188C66.1354 34 66.0938 33.9688 66.0938 33.9062V27.2812C66.0938 26.5104 65.8229 25.8438 65.2812 25.2812C64.7396 24.7188 64.0729 24.4375 63.2812 24.4375H61.1719L61.1406 33.8438C61.1406 33.9479 61.099 34 61.0156 34ZM63.9219 15.5625H61.1719V20.5938H63.9219C64.5781 20.5938 65.1615 20.349 65.6719 19.8594C66.1927 19.3698 66.4531 18.7708 66.4531 18.0625C66.4531 17.3854 66.2031 16.8021 65.7031 16.3125C65.2031 15.8125 64.6094 15.5625 63.9219 15.5625Z"/>
<path d="M71.625 33.8438L75.5938 11.8594C75.6146 11.776 75.6667 11.7344 75.75 11.7344H80.3906C80.474 11.7344 80.526 11.776 80.5469 11.8594L84.3594 33.8438C84.3698 33.9479 84.3281 34 84.2344 34H80.6875C80.5833 34 80.526 33.9479 80.5156 33.8438L80.1719 31.5H75.8125L75.4688 33.8438C75.4583 33.9479 75.4062 34 75.3125 34H71.75C71.6667 34 71.625 33.9479 71.625 33.8438ZM77.8906 19.0938L76.4531 28.0781H79.5312L78.2188 19.0938L78.0312 17.9062L77.8906 19.0938Z"/>
<path d="M92.25 33.9688L86.5156 34C86.4115 34 86.3594 33.9479 86.3594 33.8438L86.4219 11.8594C86.4219 11.776 86.4635 11.7344 86.5469 11.7344L92.5312 11.7031C93.7188 11.6719 94.7917 11.9427 95.75 12.5156C96.7188 13.0885 97.4896 13.8646 98.0625 14.8438C98.6458 15.8125 98.9375 16.8854 98.9375 18.0625V27.25C98.9375 28.4792 98.6406 29.6042 98.0469 30.625C97.4427 31.6354 96.6406 32.4427 95.6406 33.0469C94.6406 33.6406 93.5104 33.9479 92.25 33.9688ZM92.5312 15.5312L90.2969 15.5625L90.2656 30.0625H92.25C93.0417 30.0625 93.7083 29.7865 94.25 29.2344C94.7917 28.6823 95.0625 28.0208 95.0625 27.25V18.0312C95.0625 17.3542 94.8125 16.7656 94.3125 16.2656C93.8125 15.7552 93.2188 15.5104 92.5312 15.5312Z"/>
<path d="M105.234 34H101.609C101.505 34 101.453 33.9479 101.453 33.8438L101.484 11.8594C101.484 11.776 101.526 11.7344 101.609 11.7344H105.203C105.286 11.7344 105.328 11.776 105.328 11.8594L105.359 33.8438C105.359 33.9479 105.318 34 105.234 34Z"/>
<path d="M114.062 34.3125C112.906 34.3125 111.849 34.0208 110.891 33.4375C109.943 32.8542 109.188 32.0729 108.625 31.0938C108.073 30.1042 107.797 29.0052 107.797 27.7969L107.828 17.8125C107.828 16.625 108.099 15.5521 108.641 14.5938C109.182 13.625 109.927 12.849 110.875 12.2656C111.833 11.6719 112.896 11.375 114.062 11.375C115.25 11.375 116.307 11.6615 117.234 12.2344C118.172 12.8073 118.917 13.5833 119.469 14.5625C120.031 15.5312 120.312 16.6146 120.312 17.8125V19.2812C120.312 19.3646 120.271 19.4062 120.188 19.4062H116.594C116.51 19.4062 116.469 19.3646 116.469 19.2812V17.8125C116.469 17.1042 116.24 16.4948 115.781 15.9844C115.323 15.474 114.75 15.2188 114.062 15.2188C113.302 15.2188 112.719 15.4792 112.312 16C111.906 16.5208 111.703 17.125 111.703 17.8125V27.7969C111.703 28.5781 111.932 29.2188 112.391 29.7188C112.849 30.2083 113.406 30.4531 114.062 30.4531C114.75 30.4531 115.323 30.1823 115.781 29.6406C116.24 29.0885 116.469 28.474 116.469 27.7969V26.3125C116.469 26.2292 116.51 26.1875 116.594 26.1875H120.219C120.302 26.1875 120.344 26.2292 120.344 26.3125V27.7969C120.344 28.9948 120.062 30.0885 119.5 31.0781C118.927 32.0573 118.172 32.8438 117.234 33.4375C116.297 34.0208 115.24 34.3125 114.062 34.3125Z"/>
<path d="M121.594 33.8438L125.562 11.8594C125.583 11.776 125.635 11.7344 125.719 11.7344H130.359C130.443 11.7344 130.495 11.776 130.516 11.8594L134.328 33.8438C134.339 33.9479 134.297 34 134.203 34H130.656C130.552 34 130.495 33.9479 130.484 33.8438L130.141 31.5H125.781L125.438 33.8438C125.427 33.9479 125.375 34 125.281 34H121.719C121.635 34 121.594 33.9479 121.594 33.8438ZM127.859 19.0938L126.422 28.0781H129.5L128.188 19.0938L128 17.9062L127.859 19.0938Z"/>
<path d="M146.797 34H136.453C136.37 34 136.328 33.9479 136.328 33.8438L136.359 11.8906C136.359 11.7865 136.411 11.7344 136.516 11.7344H140.078C140.182 11.7344 140.234 11.7865 140.234 11.8906L140.203 30.0625H146.797C146.901 30.0625 146.953 30.1146 146.953 30.2188V33.8438C146.953 33.9479 146.901 34 146.797 34Z"/>
<path d="M164.188 34H160.312C160.219 34 160.167 33.9479 160.156 33.8438L156.375 11.8594C156.354 11.776 156.385 11.7344 156.469 11.7344H160.062C160.146 11.7344 160.198 11.776 160.219 11.8594L162.266 26.3125L164.375 11.8594C164.396 11.776 164.458 11.7344 164.562 11.7344H167.453C167.536 11.7344 167.589 11.776 167.609 11.8594L169.688 26.3125L171.766 11.8594C171.786 11.776 171.839 11.7344 171.922 11.7344H175.484C175.589 11.7344 175.63 11.776 175.609 11.8594L171.797 33.8438C171.786 33.8854 171.755 33.9219 171.703 33.9531L171.641 34H167.766C167.703 34 167.651 33.9479 167.609 33.8438L165.969 22.3594L164.344 33.8438C164.333 33.9479 164.281 34 164.188 34Z"/>
<path d="M181.234 34H177.609C177.526 34 177.484 33.9479 177.484 33.8438L177.516 11.8594C177.516 11.776 177.568 11.7344 177.672 11.7344H181.234C181.339 11.7344 181.391 11.776 181.391 11.8594L181.359 20.5625H186.156V11.8594C186.156 11.776 186.198 11.7344 186.281 11.7344H189.844C189.948 11.7344 190 11.776 190 11.8594L190.062 33.8438C190.062 33.9479 190.01 34 189.906 34H186.312C186.208 34 186.156 33.9479 186.156 33.8438V24.4375H181.359V33.8438C181.359 33.9479 181.318 34 181.234 34Z"/>
<path d="M191.594 33.8438L195.562 11.8594C195.583 11.776 195.635 11.7344 195.719 11.7344H200.359C200.443 11.7344 200.495 11.776 200.516 11.8594L204.328 33.8438C204.339 33.9479 204.297 34 204.203 34H200.656C200.552 34 200.495 33.9479 200.484 33.8438L200.141 31.5H195.781L195.438 33.8438C195.427 33.9479 195.375 34 195.281 34H191.719C191.635 34 191.594 33.9479 191.594 33.8438ZM197.859 19.0938L196.422 28.0781H199.5L198.188 19.0938L198 17.9062L197.859 19.0938Z"/>
<path d="M216.797 34H206.453C206.37 34 206.328 33.9479 206.328 33.8438L206.359 11.8906C206.359 11.7865 206.411 11.7344 206.516 11.7344H210.078C210.182 11.7344 210.234 11.7865 210.234 11.8906L210.203 30.0625H216.797C216.901 30.0625 216.953 30.1146 216.953 30.2188V33.8438C216.953 33.9479 216.901 34 216.797 34Z"/>
<path d="M229.516 34H219.172C219.089 34 219.047 33.9479 219.047 33.8438L219.078 11.8594C219.078 11.776 219.12 11.7344 219.203 11.7344H229.484C229.568 11.7344 229.609 11.7865 229.609 11.8906V15.4688C229.609 15.5521 229.568 15.5938 229.484 15.5938H222.922V20.5938H229.484C229.568 20.5938 229.609 20.6354 229.609 20.7188L229.641 24.3438C229.641 24.4271 229.599 24.4688 229.516 24.4688H222.922V30.0625H229.516C229.599 30.0625 229.641 30.1146 229.641 30.2188V33.875C229.641 33.9583 229.599 34 229.516 34Z"/>
</mask>
<path d="M61.0156 34H57.3906C57.3073 34 57.2656 33.9479 57.2656 33.8438L57.3281 11.8594C57.3281 11.776 57.3698 11.7344 57.4531 11.7344H63.9219C65.0781 11.7344 66.1406 12.0156 67.1094 12.5781C68.0781 13.1406 68.849 13.8958 69.4219 14.8438C70.0052 15.7917 70.2969 16.8646 70.2969 18.0625C70.2969 18.8438 70.1771 19.5521 69.9375 20.1875C69.6979 20.8229 69.4167 21.3594 69.0938 21.7969C68.7812 22.2344 68.4948 22.5573 68.2344 22.7656C69.3906 24.0469 69.9688 25.5521 69.9688 27.2812L70 33.8438C70 33.9479 69.9479 34 69.8438 34H66.2188C66.1354 34 66.0938 33.9688 66.0938 33.9062V27.2812C66.0938 26.5104 65.8229 25.8438 65.2812 25.2812C64.7396 24.7188 64.0729 24.4375 63.2812 24.4375H61.1719L61.1406 33.8438C61.1406 33.9479 61.099 34 61.0156 34ZM63.9219 15.5625H61.1719V20.5938H63.9219C64.5781 20.5938 65.1615 20.349 65.6719 19.8594C66.1927 19.3698 66.4531 18.7708 66.4531 18.0625C66.4531 17.3854 66.2031 16.8021 65.7031 16.3125C65.2031 15.8125 64.6094 15.5625 63.9219 15.5625Z" fill="white"/>
<path d="M71.625 33.8438L75.5938 11.8594C75.6146 11.776 75.6667 11.7344 75.75 11.7344H80.3906C80.474 11.7344 80.526 11.776 80.5469 11.8594L84.3594 33.8438C84.3698 33.9479 84.3281 34 84.2344 34H80.6875C80.5833 34 80.526 33.9479 80.5156 33.8438L80.1719 31.5H75.8125L75.4688 33.8438C75.4583 33.9479 75.4062 34 75.3125 34H71.75C71.6667 34 71.625 33.9479 71.625 33.8438ZM77.8906 19.0938L76.4531 28.0781H79.5312L78.2188 19.0938L78.0312 17.9062L77.8906 19.0938Z" fill="white"/>
<path d="M92.25 33.9688L86.5156 34C86.4115 34 86.3594 33.9479 86.3594 33.8438L86.4219 11.8594C86.4219 11.776 86.4635 11.7344 86.5469 11.7344L92.5312 11.7031C93.7188 11.6719 94.7917 11.9427 95.75 12.5156C96.7188 13.0885 97.4896 13.8646 98.0625 14.8438C98.6458 15.8125 98.9375 16.8854 98.9375 18.0625V27.25C98.9375 28.4792 98.6406 29.6042 98.0469 30.625C97.4427 31.6354 96.6406 32.4427 95.6406 33.0469C94.6406 33.6406 93.5104 33.9479 92.25 33.9688ZM92.5312 15.5312L90.2969 15.5625L90.2656 30.0625H92.25C93.0417 30.0625 93.7083 29.7865 94.25 29.2344C94.7917 28.6823 95.0625 28.0208 95.0625 27.25V18.0312C95.0625 17.3542 94.8125 16.7656 94.3125 16.2656C93.8125 15.7552 93.2188 15.5104 92.5312 15.5312Z" fill="white"/>
<path d="M105.234 34H101.609C101.505 34 101.453 33.9479 101.453 33.8438L101.484 11.8594C101.484 11.776 101.526 11.7344 101.609 11.7344H105.203C105.286 11.7344 105.328 11.776 105.328 11.8594L105.359 33.8438C105.359 33.9479 105.318 34 105.234 34Z" fill="white"/>
<path d="M114.062 34.3125C112.906 34.3125 111.849 34.0208 110.891 33.4375C109.943 32.8542 109.188 32.0729 108.625 31.0938C108.073 30.1042 107.797 29.0052 107.797 27.7969L107.828 17.8125C107.828 16.625 108.099 15.5521 108.641 14.5938C109.182 13.625 109.927 12.849 110.875 12.2656C111.833 11.6719 112.896 11.375 114.062 11.375C115.25 11.375 116.307 11.6615 117.234 12.2344C118.172 12.8073 118.917 13.5833 119.469 14.5625C120.031 15.5312 120.312 16.6146 120.312 17.8125V19.2812C120.312 19.3646 120.271 19.4062 120.188 19.4062H116.594C116.51 19.4062 116.469 19.3646 116.469 19.2812V17.8125C116.469 17.1042 116.24 16.4948 115.781 15.9844C115.323 15.474 114.75 15.2188 114.062 15.2188C113.302 15.2188 112.719 15.4792 112.312 16C111.906 16.5208 111.703 17.125 111.703 17.8125V27.7969C111.703 28.5781 111.932 29.2188 112.391 29.7188C112.849 30.2083 113.406 30.4531 114.062 30.4531C114.75 30.4531 115.323 30.1823 115.781 29.6406C116.24 29.0885 116.469 28.474 116.469 27.7969V26.3125C116.469 26.2292 116.51 26.1875 116.594 26.1875H120.219C120.302 26.1875 120.344 26.2292 120.344 26.3125V27.7969C120.344 28.9948 120.062 30.0885 119.5 31.0781C118.927 32.0573 118.172 32.8438 117.234 33.4375C116.297 34.0208 115.24 34.3125 114.062 34.3125Z" fill="white"/>
<path d="M121.594 33.8438L125.562 11.8594C125.583 11.776 125.635 11.7344 125.719 11.7344H130.359C130.443 11.7344 130.495 11.776 130.516 11.8594L134.328 33.8438C134.339 33.9479 134.297 34 134.203 34H130.656C130.552 34 130.495 33.9479 130.484 33.8438L130.141 31.5H125.781L125.438 33.8438C125.427 33.9479 125.375 34 125.281 34H121.719C121.635 34 121.594 33.9479 121.594 33.8438ZM127.859 19.0938L126.422 28.0781H129.5L128.188 19.0938L128 17.9062L127.859 19.0938Z" fill="white"/>
<path d="M146.797 34H136.453C136.37 34 136.328 33.9479 136.328 33.8438L136.359 11.8906C136.359 11.7865 136.411 11.7344 136.516 11.7344H140.078C140.182 11.7344 140.234 11.7865 140.234 11.8906L140.203 30.0625H146.797C146.901 30.0625 146.953 30.1146 146.953 30.2188V33.8438C146.953 33.9479 146.901 34 146.797 34Z" fill="white"/>
<path d="M164.188 34H160.312C160.219 34 160.167 33.9479 160.156 33.8438L156.375 11.8594C156.354 11.776 156.385 11.7344 156.469 11.7344H160.062C160.146 11.7344 160.198 11.776 160.219 11.8594L162.266 26.3125L164.375 11.8594C164.396 11.776 164.458 11.7344 164.562 11.7344H167.453C167.536 11.7344 167.589 11.776 167.609 11.8594L169.688 26.3125L171.766 11.8594C171.786 11.776 171.839 11.7344 171.922 11.7344H175.484C175.589 11.7344 175.63 11.776 175.609 11.8594L171.797 33.8438C171.786 33.8854 171.755 33.9219 171.703 33.9531L171.641 34H167.766C167.703 34 167.651 33.9479 167.609 33.8438L165.969 22.3594L164.344 33.8438C164.333 33.9479 164.281 34 164.188 34Z" fill="white"/>
<path d="M181.234 34H177.609C177.526 34 177.484 33.9479 177.484 33.8438L177.516 11.8594C177.516 11.776 177.568 11.7344 177.672 11.7344H181.234C181.339 11.7344 181.391 11.776 181.391 11.8594L181.359 20.5625H186.156V11.8594C186.156 11.776 186.198 11.7344 186.281 11.7344H189.844C189.948 11.7344 190 11.776 190 11.8594L190.062 33.8438C190.062 33.9479 190.01 34 189.906 34H186.312C186.208 34 186.156 33.9479 186.156 33.8438V24.4375H181.359V33.8438C181.359 33.9479 181.318 34 181.234 34Z" fill="white"/>
<path d="M191.594 33.8438L195.562 11.8594C195.583 11.776 195.635 11.7344 195.719 11.7344H200.359C200.443 11.7344 200.495 11.776 200.516 11.8594L204.328 33.8438C204.339 33.9479 204.297 34 204.203 34H200.656C200.552 34 200.495 33.9479 200.484 33.8438L200.141 31.5H195.781L195.438 33.8438C195.427 33.9479 195.375 34 195.281 34H191.719C191.635 34 191.594 33.9479 191.594 33.8438ZM197.859 19.0938L196.422 28.0781H199.5L198.188 19.0938L198 17.9062L197.859 19.0938Z" fill="white"/>
<path d="M216.797 34H206.453C206.37 34 206.328 33.9479 206.328 33.8438L206.359 11.8906C206.359 11.7865 206.411 11.7344 206.516 11.7344H210.078C210.182 11.7344 210.234 11.7865 210.234 11.8906L210.203 30.0625H216.797C216.901 30.0625 216.953 30.1146 216.953 30.2188V33.8438C216.953 33.9479 216.901 34 216.797 34Z" fill="white"/>
<path d="M229.516 34H219.172C219.089 34 219.047 33.9479 219.047 33.8438L219.078 11.8594C219.078 11.776 219.12 11.7344 219.203 11.7344H229.484C229.568 11.7344 229.609 11.7865 229.609 11.8906V15.4688C229.609 15.5521 229.568 15.5938 229.484 15.5938H222.922V20.5938H229.484C229.568 20.5938 229.609 20.6354 229.609 20.7188L229.641 24.3438C229.641 24.4271 229.599 24.4688 229.516 24.4688H222.922V30.0625H229.516C229.599 30.0625 229.641 30.1146 229.641 30.2188V33.875C229.641 33.9583 229.599 34 229.516 34Z" fill="white"/>
<path d="M61.0156 34H57.3906C57.3073 34 57.2656 33.9479 57.2656 33.8438L57.3281 11.8594C57.3281 11.776 57.3698 11.7344 57.4531 11.7344H63.9219C65.0781 11.7344 66.1406 12.0156 67.1094 12.5781C68.0781 13.1406 68.849 13.8958 69.4219 14.8438C70.0052 15.7917 70.2969 16.8646 70.2969 18.0625C70.2969 18.8438 70.1771 19.5521 69.9375 20.1875C69.6979 20.8229 69.4167 21.3594 69.0938 21.7969C68.7812 22.2344 68.4948 22.5573 68.2344 22.7656C69.3906 24.0469 69.9688 25.5521 69.9688 27.2812L70 33.8438C70 33.9479 69.9479 34 69.8438 34H66.2188C66.1354 34 66.0938 33.9688 66.0938 33.9062V27.2812C66.0938 26.5104 65.8229 25.8438 65.2812 25.2812C64.7396 24.7188 64.0729 24.4375 63.2812 24.4375H61.1719L61.1406 33.8438C61.1406 33.9479 61.099 34 61.0156 34ZM63.9219 15.5625H61.1719V20.5938H63.9219C64.5781 20.5938 65.1615 20.349 65.6719 19.8594C66.1927 19.3698 66.4531 18.7708 66.4531 18.0625C66.4531 17.3854 66.2031 16.8021 65.7031 16.3125C65.2031 15.8125 64.6094 15.5625 63.9219 15.5625Z" stroke="white" stroke-width="2" mask="url(#path-3-inside-1_2_8)"/>
<path d="M71.625 33.8438L75.5938 11.8594C75.6146 11.776 75.6667 11.7344 75.75 11.7344H80.3906C80.474 11.7344 80.526 11.776 80.5469 11.8594L84.3594 33.8438C84.3698 33.9479 84.3281 34 84.2344 34H80.6875C80.5833 34 80.526 33.9479 80.5156 33.8438L80.1719 31.5H75.8125L75.4688 33.8438C75.4583 33.9479 75.4062 34 75.3125 34H71.75C71.6667 34 71.625 33.9479 71.625 33.8438ZM77.8906 19.0938L76.4531 28.0781H79.5312L78.2188 19.0938L78.0312 17.9062L77.8906 19.0938Z" stroke="white" stroke-width="2" mask="url(#path-3-inside-1_2_8)"/>
<path d="M92.25 33.9688L86.5156 34C86.4115 34 86.3594 33.9479 86.3594 33.8438L86.4219 11.8594C86.4219 11.776 86.4635 11.7344 86.5469 11.7344L92.5312 11.7031C93.7188 11.6719 94.7917 11.9427 95.75 12.5156C96.7188 13.0885 97.4896 13.8646 98.0625 14.8438C98.6458 15.8125 98.9375 16.8854 98.9375 18.0625V27.25C98.9375 28.4792 98.6406 29.6042 98.0469 30.625C97.4427 31.6354 96.6406 32.4427 95.6406 33.0469C94.6406 33.6406 93.5104 33.9479 92.25 33.9688ZM92.5312 15.5312L90.2969 15.5625L90.2656 30.0625H92.25C93.0417 30.0625 93.7083 29.7865 94.25 29.2344C94.7917 28.6823 95.0625 28.0208 95.0625 27.25V18.0312C95.0625 17.3542 94.8125 16.7656 94.3125 16.2656C93.8125 15.7552 93.2188 15.5104 92.5312 15.5312Z" stroke="white" stroke-width="2" mask="url(#path-3-inside-1_2_8)"/>
<path d="M105.234 34H101.609C101.505 34 101.453 33.9479 101.453 33.8438L101.484 11.8594C101.484 11.776 101.526 11.7344 101.609 11.7344H105.203C105.286 11.7344 105.328 11.776 105.328 11.8594L105.359 33.8438C105.359 33.9479 105.318 34 105.234 34Z" stroke="white" stroke-width="2" mask="url(#path-3-inside-1_2_8)"/>
<path d="M114.062 34.3125C112.906 34.3125 111.849 34.0208 110.891 33.4375C109.943 32.8542 109.188 32.0729 108.625 31.0938C108.073 30.1042 107.797 29.0052 107.797 27.7969L107.828 17.8125C107.828 16.625 108.099 15.5521 108.641 14.5938C109.182 13.625 109.927 12.849 110.875 12.2656C111.833 11.6719 112.896 11.375 114.062 11.375C115.25 11.375 116.307 11.6615 117.234 12.2344C118.172 12.8073 118.917 13.5833 119.469 14.5625C120.031 15.5312 120.312 16.6146 120.312 17.8125V19.2812C120.312 19.3646 120.271 19.4062 120.188 19.4062H116.594C116.51 19.4062 116.469 19.3646 116.469 19.2812V17.8125C116.469 17.1042 116.24 16.4948 115.781 15.9844C115.323 15.474 114.75 15.2188 114.062 15.2188C113.302 15.2188 112.719 15.4792 112.312 16C111.906 16.5208 111.703 17.125 111.703 17.8125V27.7969C111.703 28.5781 111.932 29.2188 112.391 29.7188C112.849 30.2083 113.406 30.4531 114.062 30.4531C114.75 30.4531 115.323 30.1823 115.781 29.6406C116.24 29.0885 116.469 28.474 116.469 27.7969V26.3125C116.469 26.2292 116.51 26.1875 116.594 26.1875H120.219C120.302 26.1875 120.344 26.2292 120.344 26.3125V27.7969C120.344 28.9948 120.062 30.0885 119.5 31.0781C118.927 32.0573 118.172 32.8438 117.234 33.4375C116.297 34.0208 115.24 34.3125 114.062 34.3125Z" stroke="white" stroke-width="2" mask="url(#path-3-inside-1_2_8)"/>
<path d="M121.594 33.8438L125.562 11.8594C125.583 11.776 125.635 11.7344 125.719 11.7344H130.359C130.443 11.7344 130.495 11.776 130.516 11.8594L134.328 33.8438C134.339 33.9479 134.297 34 134.203 34H130.656C130.552 34 130.495 33.9479 130.484 33.8438L130.141 31.5H125.781L125.438 33.8438C125.427 33.9479 125.375 34 125.281 34H121.719C121.635 34 121.594 33.9479 121.594 33.8438ZM127.859 19.0938L126.422 28.0781H129.5L128.188 19.0938L128 17.9062L127.859 19.0938Z" stroke="white" stroke-width="2" mask="url(#path-3-inside-1_2_8)"/>
<path d="M146.797 34H136.453C136.37 34 136.328 33.9479 136.328 33.8438L136.359 11.8906C136.359 11.7865 136.411 11.7344 136.516 11.7344H140.078C140.182 11.7344 140.234 11.7865 140.234 11.8906L140.203 30.0625H146.797C146.901 30.0625 146.953 30.1146 146.953 30.2188V33.8438C146.953 33.9479 146.901 34 146.797 34Z" stroke="white" stroke-width="2" mask="url(#path-3-inside-1_2_8)"/>
<path d="M164.188 34H160.312C160.219 34 160.167 33.9479 160.156 33.8438L156.375 11.8594C156.354 11.776 156.385 11.7344 156.469 11.7344H160.062C160.146 11.7344 160.198 11.776 160.219 11.8594L162.266 26.3125L164.375 11.8594C164.396 11.776 164.458 11.7344 164.562 11.7344H167.453C167.536 11.7344 167.589 11.776 167.609 11.8594L169.688 26.3125L171.766 11.8594C171.786 11.776 171.839 11.7344 171.922 11.7344H175.484C175.589 11.7344 175.63 11.776 175.609 11.8594L171.797 33.8438C171.786 33.8854 171.755 33.9219 171.703 33.9531L171.641 34H167.766C167.703 34 167.651 33.9479 167.609 33.8438L165.969 22.3594L164.344 33.8438C164.333 33.9479 164.281 34 164.188 34Z" stroke="white" stroke-width="2" mask="url(#path-3-inside-1_2_8)"/>
<path d="M181.234 34H177.609C177.526 34 177.484 33.9479 177.484 33.8438L177.516 11.8594C177.516 11.776 177.568 11.7344 177.672 11.7344H181.234C181.339 11.7344 181.391 11.776 181.391 11.8594L181.359 20.5625H186.156V11.8594C186.156 11.776 186.198 11.7344 186.281 11.7344H189.844C189.948 11.7344 190 11.776 190 11.8594L190.062 33.8438C190.062 33.9479 190.01 34 189.906 34H186.312C186.208 34 186.156 33.9479 186.156 33.8438V24.4375H181.359V33.8438C181.359 33.9479 181.318 34 181.234 34Z" stroke="white" stroke-width="2" mask="url(#path-3-inside-1_2_8)"/>
<path d="M191.594 33.8438L195.562 11.8594C195.583 11.776 195.635 11.7344 195.719 11.7344H200.359C200.443 11.7344 200.495 11.776 200.516 11.8594L204.328 33.8438C204.339 33.9479 204.297 34 204.203 34H200.656C200.552 34 200.495 33.9479 200.484 33.8438L200.141 31.5H195.781L195.438 33.8438C195.427 33.9479 195.375 34 195.281 34H191.719C191.635 34 191.594 33.9479 191.594 33.8438ZM197.859 19.0938L196.422 28.0781H199.5L198.188 19.0938L198 17.9062L197.859 19.0938Z" stroke="white" stroke-width="2" mask="url(#path-3-inside-1_2_8)"/>
<path d="M216.797 34H206.453C206.37 34 206.328 33.9479 206.328 33.8438L206.359 11.8906C206.359 11.7865 206.411 11.7344 206.516 11.7344H210.078C210.182 11.7344 210.234 11.7865 210.234 11.8906L210.203 30.0625H216.797C216.901 30.0625 216.953 30.1146 216.953 30.2188V33.8438C216.953 33.9479 216.901 34 216.797 34Z" stroke="white" stroke-width="2" mask="url(#path-3-inside-1_2_8)"/>
<path d="M229.516 34H219.172C219.089 34 219.047 33.9479 219.047 33.8438L219.078 11.8594C219.078 11.776 219.12 11.7344 219.203 11.7344H229.484C229.568 11.7344 229.609 11.7865 229.609 11.8906V15.4688C229.609 15.5521 229.568 15.5938 229.484 15.5938H222.922V20.5938H229.484C229.568 20.5938 229.609 20.6354 229.609 20.7188L229.641 24.3438C229.641 24.4271 229.599 24.4688 229.516 24.4688H222.922V30.0625H229.516C229.599 30.0625 229.641 30.1146 229.641 30.2188V33.875C229.641 33.9583 229.599 34 229.516 34Z" stroke="white" stroke-width="2" mask="url(#path-3-inside-1_2_8)"/>
</svg>
