<?xml version="1.0" encoding="UTF-8"?>
<svg width="280" height="48" viewBox="0 0 280 48" xmlns="http://www.w3.org/2000/svg">
  <!-- Whale icon (scaled down and positioned) -->
  <g transform="translate(0, 0) scale(0.04, 0.04)">
    <path fill="#2dd4bf" d="m416.4 781.2c-94.797-38.398-164.4-124.8-175.2-229.2-2.3984-18-18-31.199-36-31.199h-48c-21.602 0-38.398 19.199-36 39.602 15.602 158.4 124.8 290.4 271.2 339.6 22.801 7.1992 46.801-9.6016 46.801-34.801v-51.602c0-14.398-9.5977-27.598-22.801-32.398z"/>
    <path fill="#2dd4bf" d="m769.2 280.8h-50.398c-84 0-152.4-63.602-159.6-145.2 0-9.6016-7.1992-15.602-15.598-15.602h-48c-9.6016 0-16.801 8.3984-15.602 16.801 4.8008 68.398 38.398 129.6 90 170.4 8.3984 7.1992 8.3984 18 0 25.199-51.602 40.801-85.199 103.2-90 172.8 0 8.3984-7.1992 14.398-15.602 14.398h-127.2c-9.6016 0-16.801 8.3984-16.801 18 8.3984 91.199 78 165.6 168 180 18 2.3984 31.199 18 31.199 36v310.8c0 9.6016 8.3984 16.801 16.801 15.602 85.199-7.1992 154.8-67.199 176.4-147.6 1.1992-6 8.3984-12 15.602-12h31.199c219.6 0 388.8-222 292.8-454.8-48-112.8-160.8-184.8-283.2-184.8zm-13.199 240h-165.6c-22.801 0-30-8.3984-28.801-18 7.2031-80.402 75.602-142.8 157.2-142.8h39.602c44.398 0 81.602 37.199 80.398 81.602-1.1992 44.398-39.602 79.199-82.801 79.199z"/>
  </g>
  
  <!-- Radical Whale text -->
  <text x="58" y="28" font-family="'Brush Script MT', 'Lucida Handwriting', 'Apple Chancery', cursive" font-size="32" font-weight="400" fill="#ffffff" dominant-baseline="middle">
    Radical Whale
  </text>
</svg>
